<svg width="26" height="25" viewBox="0 0 26 25" fill="none" xmlns="http://www.w3.org/2000/svg" />
<path d="M10.8754 19.7671C9.61762 19.7671 8.59436 20.8077 8.59436 22.0868C8.59436 23.3659 9.61762 24.4065 10.8754 24.4065C12.1331 24.4065 13.1564 23.3659 13.1564 22.0868C13.1563 20.8077 12.1331 19.7671 10.8754 19.7671ZM10.8754 23.1112C10.3199 23.1112 9.86796 22.6515 9.86796 22.0867C9.86796 21.5218 10.3199 21.0622 10.8754 21.0622C11.4308 21.0622 11.8828 21.5218 11.8828 22.0867C11.8828 22.6517 11.4308 23.1112 10.8754 23.1112Z" fill="black"/>
<path d="M18.8764 19.7671C17.6186 19.7671 16.5953 20.8077 16.5953 22.0868C16.5953 23.3659 17.6186 24.4065 18.8764 24.4065C20.1342 24.4065 21.1575 23.3659 21.1575 22.0868C21.1574 20.8077 20.1341 19.7671 18.8764 19.7671ZM18.8764 23.1112C18.3209 23.1112 17.869 22.6515 17.869 22.0867C17.869 21.5218 18.3209 21.0622 18.8764 21.0622C19.4319 21.0622 19.8838 21.5218 19.8838 22.0867C19.8838 22.6517 19.4319 23.1112 18.8764 23.1112Z" fill="black"/>
<path d="M19.438 7.55396H10.3122C9.96051 7.55396 9.67542 7.84388 9.67542 8.20155C9.67542 8.55922 9.96056 8.84915 10.3122 8.84915H19.438C19.7897 8.84915 20.0748 8.55922 20.0748 8.20155C20.0748 7.84383 19.7897 7.55396 19.438 7.55396Z" fill="black"/>
<path d="M18.9414 10.917H10.8089C10.4572 10.917 10.1721 11.2069 10.1721 11.5646C10.1721 11.9223 10.4572 12.2122 10.8089 12.2122H18.9413C19.293 12.2122 19.5781 11.9223 19.5781 11.5646C19.5781 11.207 19.293 10.917 18.9414 10.917Z" fill="black"/>
<path d="M25.6499 4.66861C25.407 4.3655 25.0472 4.19168 24.6626 4.19168H4.82655L4.42595 2.21405C4.34232 1.80151 4.06563 1.45512 3.68565 1.28734L0.890528 0.0535392C0.567841 -0.0890044 0.192825 0.0615756 0.0528584 0.389627C-0.0872597 0.717781 0.0608116 1.0992 0.383347 1.24154L3.17852 2.47539L6.2598 17.6859C6.38117 18.285 6.90578 18.7197 7.50723 18.7197H22.7635C23.1152 18.7197 23.4003 18.4298 23.4003 18.0721C23.4003 17.7145 23.1152 17.4245 22.7635 17.4245H7.50728L7.13247 15.5743H22.8814C23.4828 15.5743 24.0075 15.1395 24.1288 14.5405L25.9101 5.74807C25.9876 5.36521 25.8928 4.97168 25.6499 4.66861ZM22.8814 14.2792H6.87012L5.08895 5.48684L24.6626 5.48689L22.8814 14.2792Z" fill="black"/>
 <circle class="card-filled" cx="25" cy="4.89023" r="4" fill="#f9cada" />
</svg>
