<svg width="18" height="14" viewBox="0 0 18 14" fill="none" xmlns="http://www.w3.org/2000/svg">
<path d="M15.9773 0H1.04219C0.466585 0 0 0.279408 0 0.6241C0 0.968792 0.466668 1.2482 1.04219 1.2482H15.9773C16.5529 1.2482 17.0195 0.968792 17.0195 0.6241C17.0195 0.279358 16.5529 0 15.9773 0Z" fill="black"/>
<path d="M15.9773 6.13794H1.04219C0.466585 6.13794 0 6.41735 0 6.76204C0 7.10673 0.466668 7.38614 1.04219 7.38614H15.9773C16.5529 7.38614 17.0195 7.10673 17.0195 6.76204C17.0195 6.4173 16.5529 6.13794 15.9773 6.13794Z" fill="black"/>
<path d="M15.9773 12.2761H1.04219C0.466585 12.2761 0 12.5555 0 12.9002C0 13.2449 0.466668 13.5243 1.04219 13.5243H15.9773C16.5529 13.5243 17.0195 13.2449 17.0195 12.9002C17.0195 12.5555 16.5529 12.2761 15.9773 12.2761Z" fill="black"/>
</svg>
